<?xml version="1.0" encoding="UTF-8"?>
<svg id="Layer_1" data-name="Layer 1" xmlns="http://www.w3.org/2000/svg" version="1.1" viewBox="0 0 1069.3 237">
  <defs>
    <style>
      .cls-1 {
        fill: #27aae1;
      }

      .cls-1, .cls-2, .cls-3, .cls-4 {
        stroke-width: 0px;
      }

      .cls-5 {
        isolation: isolate;
      }

      .cls-2 {
        fill: #d7df23;
      }

      .cls-3 {
        fill: #939598;
      }

      .cls-4 {
        fill: #808285;
      }
    </style>
  </defs>
  <path class="cls-1" d="M541.8,127.8c-6.1-11.1-6-21.7.8-27.3.8,9.2,2.3,14.2,6.8,22.3-.1,0-1,.4-1.9.7.1.4.3.7.4,1.1,16.7-3.9,32.3-2.7,46.5,8,4.5-14.5-22-26-30.6-32.4-11.5-8.5-19.8-21.5-19.8-36.1,0-14.3,8.9-27,21.8-32.8,10.7-4.9,28-11.2,38.5-4.8-.1-1-.2-1.7-.3-2.9,7.4,2.9,14.5,5.6,21.4,8.2.8,6.4-3.4,9.4-6.5,13.7-.1-1.6-.2-2.7-.3-3.9-1.4-.2-2.9-.5-4.4-.7-1.1,1.7-2.2,3.2-3.3,4.8-.3-.1-.7-.2-1-.3.1-1.2.3-2.5.4-4.2-3.2.3-6.2.6-9.2.9-.3,7.4,3.6,11.5,9.1,15.6,5.5,4.1,5.6,4.5,8.7,10.5-1,.9-1.9,1.8-2.8,2.6-.6-2-1.2-4-1.9-6.3-10.8,4.8-23.2-9.9-32.7-12.9-8.8-2.9-22,.2-21.9,11.8,2.5-5.6,5.8-10.2,13.1-11.2-11.9,17.1,6.6,30.1,19,37.8,17.4,10.7,27,20.1,34.6,39.3.2-2.5.4-4.7.7-7.2,20.8-1.3,44,11,36.4,35.1-6.9,21.9-38.7,25.5-55.6,13.4-7.3,5.4-15.1,10.7-24.8,11.6,26.3-14.1,40.1-39.5,28.9-55.9,5,30.9-18.4,56.7-50,56.4-34-.3-45.9-33.3-20.2-54.8h0ZM553,155.4c-5.7-3.2-5.9-8.3-1.5-12.6,5.1-5,14.2-3.7,20.5-3.7-8.4-3.3-33.5.8-24.4,14.8,6.7,10.3,29.1,5.1,37.1-.4-10.6-6.5-21-5.8-31.7,1.9h0ZM623.2,148c8.4,3.7,13,3.1,16.7-2.4-1.4-1.6-2.9-3.3-4.5-5.1-1.7,1.3-2.7,2.1-3.1,2.4-2.8-.2-4.8-.3-7-.4-.8,2-1.4,3.6-2.1,5.6h0ZM617.3,159.6c-2.9,3.5-5.7,6.8-8.4,10.1.3.3.6.5.9.8,4-1.5,5.4-5.8,8.2-8.4,8.6,3.8,17.2,5.5,26.3,3.5-9.1-.4-18.1-1.5-27-6h0ZM597.2,42.4c-5.3-.8-9.7-1.5-13.9-2.2,2.7,2.8,5.2,5.4,8.2,8.5-.9-2.4-1.5-4-2.2-5.7,2.5-.2,4.7-.4,7.8-.7h0ZM596,27c1.9,5.1,5,6.9,9.9,3.5-3.6-.8-6-4.4-9.9-3.5Z"/>
  <path class="cls-4" d="M308.9,158.3c5.6-30.8,11.1-61.2,16.6-91.6h21.3c-8.1,38.1-16.1,75.9-24.2,113.9h-26.9c-5.6-28.4-11.2-56.8-17-85.5-5.5,28.6-11.1,57-16.6,85.5h-26c-8.4-37.8-16.7-75.6-25.1-113.8h22.8c5.5,30.2,11.1,60.5,16.7,91.1,6.1-30.2,12.3-60.5,18.5-91h20.7c6.3,30.3,12.7,60.8,19.1,91.5h0Z"/>
  <path class="cls-4" d="M367.9,28.8h22.1v60.8h51.2V29h22.4v151.5h-22.1v-66.8h-51.6v66.9h-22.1V28.8Z"/>
  <path class="cls-3" d="M695.5,223.8h-21.4V73.3h17.5c.5,3.4,1,6.9,1.7,11.4,12.7-10.2,26.8-19.8,43.2-10.7,16.3,9.1,20.6,29.8,21.3,46.9,1.4,35.4-24,83-62.3,51.9v51.1h0ZM695.5,153.7c10.7,11.5,27.1,12.2,35.2-2.3,7.1-12.8,7.1-33.9,1.7-47.3-5.8-14.3-22-16.9-32.7-5.1-6.2,6.9-4.2,16.5-4.2,25.5v29.3Z"/>
  <path class="cls-3" d="M853.5,134.2h-58.5c1.4,26.6,24.6,39.3,48.2,22.2,2.4,5.1,4.8,10.1,7.3,15.6-18.1,13.2-43.6,17.2-60.9.2-17.6-17.3-20.3-48.3-11.7-70.4,7.9-20.5,26.5-37.4,49.9-29.7,26.2,8.7,25.6,39.7,25.6,62.1h0ZM835.4,116.6c-1.1-11.7-3-25.7-17.6-26.6-14.9-.9-21.8,14-23.2,26.6h40.8Z"/>
  <path class="cls-2" d="M1024.8,83.3c-3.4,6.5-6.5,12.3-9.7,18.4-12-7.2-24.3-11.9-37.6-4.7-11.4,6.1-17.8,19.8-18.5,32.4-.7,11.5,3.1,23.9,14.2,29.3,12,5.8,24.1-.2,35-5.6,1.6,6.6,3.1,12.9,4.6,19.2-38.8,25.2-80.7-4.1-74-48.6,6.3-41.7,50.2-65.2,86.1-40.4h0Z"/>
  <path class="cls-4" d="M518.4,180.6h-22V29h22v151.7h0Z"/>
  <path class="cls-3" d="M896.2,181h-21.3v-107.6h17.5c.5,6,1.1,12,1.7,19.2,8.2-13.5,19.5-27.8,37.2-20.1-1.2,7.2-2.4,14.3-3.6,21.8-43.7-7.8-31.4,60.6-31.4,86.7h0Z"/>
  <path class="cls-2" d="M947.2,84.6c-1.1-18.2,1.9-72.8,32.2-65.7,4,5.2-4.7,16.9-6.4,21.8-3.1,9-.8,15.9,2.8,24.3-11,4.3-20.7,10.5-28.7,19.6h0Z"/>
  <path class="cls-2" d="M980,120.6h10.6v-12.9h10.5c.3,4.2.6,8.3.9,13.1h11.2v12.3h-11.3v12.8h-11.1v-12.5h-10.8v-12.7h0Z"/>
  <path class="cls-2" d="M1051,120.7v12.5h-10.2v12.7h-11v-12.6h-11.6v-12.3c3.6-.2,7.3-.3,11.4-.5v-12.8h10.9v13h10.5Z"/>
  <path class="cls-2" d="M1007,28.7c.7,1.2,1.3,2.3,1.9,3.5-2,5.7-7.2,9.7-8.2,15.8-1,5.5,3.3,10.2,2.7,15h-23.2c2-13.2,7.9-40.2,26.8-34.4h0Z"/>
  <g class="cls-5">
    <g class="cls-5">
      <path class="cls-2" d="M92.8,162.1c-11.2,3.5-20.9,5.2-29.1,5.2-12.9,0-23.6-4.9-32.1-14.6-8.5-9.8-12.8-22.1-12.8-36.9s4.2-28.2,12.6-37.1c8.4-8.9,20.2-13.3,35.3-13.3s15.8,1,25,3.1v14.8c-9.8-2.9-17.8-4.4-23.9-4.4-8.9,0-16,3.4-21.4,10.2-5.3,6.8-8,15.9-8,27.2s2.8,19.8,8.3,26.6c5.5,6.8,12.7,10.2,21.6,10.2s16.1-2.1,24.4-6.2v15.3Z"/>
      <path class="cls-2" d="M124.3,200.5l15.5-35.5-37-97.5h18.8l27.4,73.4,29.2-73.4h16.4l-52.2,133h-18.1Z"/>
    </g>
  </g>
</svg>