<svg version="1.2" xmlns="http://www.w3.org/2000/svg" viewBox="0 68.00000000000001 859.0000000000001 219.00000000000006" width="860" height="220">
	<style>
		.s0 { fill: #5e7ee7 } 
	</style>
	<path id="Shape 1" fill-rule="evenodd" class="s0" d="m766.3 75.22c-9.1 3.3-16.8 16.5-19.8 33.7-1.8 10.6-3.1 30.7-1.9 30.7 0.5 0 3.2-2.4 6.1-5.3 3.1-3.2 8.6-7 13.5-9.6 4.6-2.4 8.4-4.5 8.6-4.6 0.1-0.1-0.7-2.3-1.9-4.9-3.5-8-3-13.5 2.5-26.5 3.6-8.4 4.6-11.9 3.9-13-1.3-2.1-5.9-2.3-11-0.5zm-387 6.4c-18.5 4.7-25.9 9-32.1 18.8-7.2 11.3-7.8 23.4-1.7 36.1 4.7 9.7 10.9 16.1 24.3 24.9 18.1 11.8 22.6 17.5 22.6 28.7 0 3.3-0.5 6.9-1.1 7.9-0.9 1.6-1 0.6-0.6-4.5l0.5-6.5-4.8-2.6c-12.9-6.8-24.7-8.1-40.4-4.3-2.4 0.6-2.4 0.6-0.6-0.9 1.8-1.5 1.8-1.6-0.7-4.5-2.5-3-4.8-10.6-4.4-15 0.3-3.6-2-3.6-3.8 0-2.1 4-1.7 14.9 0.8 19.8l1.7 3.3-5 4.7c-15 14.1-12.3 36.6 5.7 46.3 12.4 6.8 33 5.1 48.2-3.9 20.6-12.3 28.3-35.4 18.1-54.2-2.4-4.3-2.6-5-0.9-3.1 1.2 1.4 3.4 5 4.8 8 2.1 4.6 2.6 7 2.6 14.1 0 7.8-0.3 9.1-3.7 16.1-4.6 9.2-14.5 19-24.6 24.3-5.7 3-6.2 3.5-3.2 3 1.9-0.3 7.3-2.4 11.9-4.7 6.4-3.1 10.1-5.8 15.3-11l6.7-6.8 6.1 2c8.5 2.9 16.5 3.5 22.3 1.7 5.5-1.8 6.2-1.2 1.2 0.9-4.9 2-16.8 1.8-23.5-0.6l-5.5-1.9-4.5 4.9-4.6 4.9 2.6 1c9.1 3.6 24.6 4.6 32.7 2.3 14.5-4.2 23.4-20.1 19.4-34.7-2.4-9.1-13.2-16.6-26.3-18.4-9.4-1.3-10.6-0.8-11 4.3l-0.4 4.1-0.8-4c-2.7-12.6-12.6-24-30-34.5-15.9-9.6-20.4-13.3-23.2-19.3-2.7-6-3.2-13.7-1-18 1.6-3 0.8-3.4-3.2-1.3-4.1 2.1-6.2 4.9-7.8 10.3l-1.4 4.8 0.5-4.4c1.9-15.4 18.1-18.6 33.8-6.7 5.3 4 13.3 7.6 16.8 7.6l3.4-0.1-2.4-1.9c-1.3-1.1-1.8-2-1.2-2 1.7 0 5 3.7 5.5 6.2 0.3 1.3 0.7 3.2 0.9 4.3 0.3 1.3 0.5 1 0.6-1l0.1-3 4 5-1-3c-0.6-1.6-1.6-3.5-2.1-4.2-0.6-0.7-0.8-1.6-0.6-2.1 0.9-1.3-0.5-2.7-5.8-5.6-5.5-2.9-9.5-7.9-9.5-11.8 0-2.4-0.3-2.6-6.2-3-3.5-0.3-6.4-0.4-6.6-0.3-0.1 0.1 1.3 2.4 3.3 4.9 2.1 2.8 2.8 4.3 1.8 3.7-1-0.5-3.1-2.7-4.8-4.9-1.6-2.3-4.7-5-6.7-6.2-2.7-1.5-3.8-2.8-3.7-4.3 0-2.2 0-2.2 0.9-0.1 1.7 4.2 7.5 5.9 19.8 5.8h11.3l-0.5 2.5-0.6 2.6 2.3-2.8c1.3-1.5 3.3-2.7 4.6-2.7 2 0 2.3 0.4 1.8 2.6-0.4 2.5-0.3 2.5 2.9-1.1 1.8-2.1 3.6-5.1 4-6.8 0.8-3.8-0.5-4.8-9.5-7.8-3.6-1.2-7.5-2.8-8.7-3.6-2.5-1.6-3.9-0.6-2.1 1.6 0.7 0.9-0.2 0.7-2.4-0.7-4.6-2.8-6.8-2.7-20.6 0.8zm416.1 2.1c-6.6 1.9-13.6 13.5-16.8 27.8-0.9 4-1.6 7.5-1.4 7.6 0.2 0.2 2.8-0.1 5.8-0.7 3-0.6 8.3-0.8 11.8-0.5 3.4 0.2 6.2 0.4 6.2 0.2 0-0.1-0.7-1.9-1.5-3.8-2.3-5.5-1.9-12.8 0.8-16.8 6.7-10.1 7.9-13.2 5.1-14.3-2.1-0.8-6.2-0.6-10 0.5zm-608.4-0.1h-22v153h22l0.2-33.8 0.3-33.7 25.8-0.3 25.7-0.2v68h22v-153h-22l-0.2 30.7-0.3 30.8h-51l-0.3-30.8zm129 0h-10.9c-6.1 0-11.2 0.4-11.5 0.8-0.3 0.5-0.4 34.8-0.3 76.3l0.2 75.4h22l0.3-76.3zm-285.2 38h-10.9c-9.3 0-10.9 0.2-10.9 1.6 0 1.4 9.3 44.3 20 91.9l4.7 21 25.2 0.6 1-3.8c1.8-6.9 13-64.6 14.3-73.6 0.6-4.8 1.5-8.7 1.8-8.7 0.4 0 1.9 7.1 3.4 15.7 3 17.8 13.4 68.1 14.2 69.5 0.8 1.2 25.3 0.8 26-0.4 0.6-0.9 4.2-17.3 11.4-51.3 2.6-12.5 4.2-20 11-52 1.1-5 2-9.3 2-9.8 0-0.4-4.7-0.7-10.4-0.7h-10.4l-3.1 16.2c-6 30.9-9 47.4-11.2 61.6-1.2 7.8-2.3 14.1-2.6 13.9-0.2-0.2-2.8-12.3-5.8-26.8-2.9-14.5-6.6-31.8-8-38.4-1.4-6.6-3-14.5-3.6-17.5-1.8-9.8-0.8-9.1-12.2-8.8l-10.2 0.3-2.6 12.5c-9.5 45.2-12 57.6-13.5 66.5-0.9 5.5-2 10.6-2.3 11.3-0.4 0.8-1.6-4.2-2.6-11-1.4-9.9-11-62.2-14.1-76.6zm481.2 4.9c-4.6 1.5-10.6 4.9-15.8 9-2.8 2.3-5.4 4.1-5.7 4.1-0.3 0-0.5-1.5-0.5-3.3 0-7.5-0.3-7.7-10.1-7.7h-8.9v151h22.1l-0.3-25.5c-0.2-14-0.1-25.5 0.1-25.5 0.2 0 2 1.4 4.1 3 20.8 16.5 45.3 4.4 55.2-27 2-6.6 2.3-9.5 2.3-24 0-17.7-1.1-24.1-6-34.7-3-6.7-9.7-13.9-15.8-17-5.3-2.6-16.2-3.9-20.7-2.4zm91.8 0.6c-6.2 2-14.8 8-19.4 13.5-5.2 6.3-10 17.1-12 27-2 10.1-1.5 27.4 1.1 36 2.8 9.3 8.4 18.7 14.1 24 15.7 14.2 36.2 15.2 56.1 2.7l4.2-2.6-3.6-7.9-3.5-7.9-6.7 3.4c-18.7 9.6-36 1.7-40.7-18.6-0.8-3.1-1.4-5.9-1.4-6.4 0-0.4 13.3-0.7 29.5-0.7h29.5v-12.3c0-25.1-7.7-41.4-22.8-48.4-6.7-3.1-17.7-3.9-24.4-1.8zm105.4 1.1c-5.6 2.8-12.1 9.5-15.5 15.9l-2.2 4-0.9-9.8-0.8-9.7h-17.8v108h22v-34l-0.1-34 3.2-6.1c3.8-7.1 9.8-12.6 14.7-13.5 1.8-0.4 5.6-0.4 8.2-0.1 5.6 0.7 5 1.7 7.3-13.1l1.4-8.2-3.6-1c-5.8-1.6-10.4-1.2-15.9 1.6zm71.6 0.4c-2.6 0.4-8.2 2.5-12.4 4.5-14.1 6.8-25.2 20.7-30.3 38.1-2.5 8.5-2.9 25-0.7 33 6.6 24.9 30.7 38.5 55 31.3 6.7-2 13.7-5 16.2-7 0.9-0.7 0.7-3.2-0.8-9.6-1-4.7-2.1-9-2.4-9.4-0.2-0.5-2 0.1-4 1.1-5.5 3.2-15 6-19.7 6-5.6 0-12-2.2-16-5.6-14.4-11.9-11.7-42.5 4.8-55.7 9.9-7.9 21.8-8.8 34-2.7 3.9 1.9 7.3 3.6 7.6 3.8 0.3 0.1 2.7-3.8 5.3-8.7l4.7-9-3.8-2.5c-2.1-1.4-6.5-3.6-9.9-5-6.8-2.8-19.9-4-27.6-2.6zm17.7 34.5l-4.5-0.3c-2.5-0.2-4.9 0-5.3 0.4-0.4 0.4-0.7 3.6-0.7 7.1v6.3h-11v12h11v13h11v-12.9l5.8-0.3 5.7-0.3 0.6-11.4-11.6-0.6zm39 0l-5.2-0.3-5.3-0.3v14.1h-12.1l0.3 5.7 0.3 5.8 5.8 0.3 5.7 0.3v12.9h11v-13h11v-12h-10.9l-0.3-6.8zm-464.3 31.9c3.3 1.5 3.3 1.5 0.3 0.8-1.6-0.4-6.9-0.7-11.7-0.7-7.2 0-9.1 0.3-11.5 2.1-4 3-5.3 6-4.1 9.5 1.4 4 3.9 4.4 8.3 1.5 6.3-4.3 15.7-4.7 24-1.2 3.8 1.7 3.9 1.8 2 3.2-5.4 4-22.8 5.7-30.1 2.9-5.5-2.1-7.7-6-6.3-10.9 1.2-4.3 4-6.7 9.6-8.2 5.6-1.6 14.7-1.1 19.5 1zm147.8-46.2c5.5 2.8 8.5 7.8 10.5 17.5 2.7 12.7 1.3 30.9-3 39.5-5.6 11-16 14.9-26.6 9.9-9.3-4.4-9-3.2-8.7-32.6l0.3-25.8 4.7-3.9c2.5-2.2 6.3-4.6 8.5-5.3 5.5-2 9.3-1.8 14.3 0.7zm102.8-0.6c3.9 2.9 8 11.8 8.4 18.4l0.3 5.5h-40l0.2-3.9c0.5-8.1 7.1-18.2 13.8-21.3 4.2-1.9 13.8-1.2 17.3 1.3z"/>
	<g>
	</g>
</svg>