<?xml version="1.0" encoding="UTF-8"?>
<svg id="Layer_1" data-name="Layer 1" xmlns="http://www.w3.org/2000/svg" version="1.1" viewBox="0 0 1069.28 237">
  <defs>
    <style>
      .cls-1 {
        fill: #808285;
      }

      .cls-1, .cls-2, .cls-3, .cls-4 {
        stroke-width: 0px;
      }

      .cls-2, .cls-5 {
        fill: #d7df23;
      }

      .cls-5 {
        font-family: LucidaSansUnicode, 'Lucida Sans Unicode';
        font-size: 183.98px;
      }

      .cls-3 {
        fill: #939598;
      }

      .cls-4 {
        fill: #27aae1;
      }
    </style>
  </defs>
  <path class="cls-4" d="M541.83,127.79c-6.12-11.12-6.02-21.66.83-27.27.8,9.15,2.32,14.16,6.77,22.28-.14.05-1,.38-1.87.71.14.37.28.73.41,1.1,16.66-3.93,32.35-2.65,46.48,7.96,4.53-14.5-22.05-26.03-30.61-32.38-11.48-8.52-19.82-21.47-19.85-36.14-.03-14.35,8.93-26.97,21.78-32.84,10.65-4.87,27.97-11.23,38.5-4.75-.11-1.01-.19-1.71-.31-2.9,7.41,2.85,14.52,5.58,21.42,8.23.79,6.37-3.41,9.42-6.45,13.7-.14-1.61-.24-2.66-.35-3.92-1.43-.23-2.88-.47-4.36-.71-1.14,1.66-2.2,3.2-3.26,4.75-.35-.11-.7-.23-1.04-.34.13-1.23.26-2.46.44-4.17-3.16.3-6.23.59-9.21.87-.3,7.4,3.57,11.52,9.1,15.6,5.53,4.08,5.58,4.55,8.66,10.5-.95.91-1.88,1.78-2.77,2.63-.61-2-1.23-4.02-1.93-6.3-10.77,4.83-23.16-9.86-32.65-12.94-8.79-2.86-21.98.23-21.91,11.8,2.48-5.63,5.82-10.24,13.07-11.18-11.91,17.12,6.6,30.14,19.05,37.84,17.36,10.72,27.02,20.11,34.6,39.26.24-2.51.44-4.65.68-7.21,20.81-1.29,43.96,11.02,36.38,35.13-6.89,21.94-38.7,25.49-55.56,13.42-7.31,5.45-15.1,10.68-24.83,11.62,26.29-14.06,40.09-39.48,28.94-55.89,4.98,30.87-18.36,56.68-49.97,56.37-33.99-.33-45.87-33.28-20.17-54.84ZM553.05,155.43c-5.72-3.19-5.89-8.29-1.5-12.58,5.08-4.97,14.19-3.68,20.5-3.68-8.39-3.27-33.45.75-24.38,14.83,6.65,10.32,29.08,5.14,37.1-.42-10.62-6.53-20.97-5.83-31.72,1.86ZM623.18,147.99c8.37,3.69,13.01,3.08,16.65-2.4-1.37-1.58-2.86-3.31-4.45-5.14-1.66,1.28-2.68,2.07-3.12,2.41-2.75-.17-4.83-.3-7.01-.43-.75,1.99-1.37,3.64-2.09,5.57ZM617.35,159.59c-2.92,3.53-5.65,6.84-8.39,10.15.29.26.58.52.86.77,3.95-1.49,5.36-5.76,8.16-8.38,8.58,3.77,17.18,5.48,26.33,3.47-9.13-.35-18.09-1.46-26.96-6.01ZM597.22,42.39c-5.35-.85-9.69-1.53-13.87-2.19,2.73,2.82,5.25,5.43,8.25,8.52-.92-2.38-1.54-3.98-2.19-5.68,2.45-.2,4.65-.39,7.82-.65ZM596.01,27.03c1.93,5.1,4.99,6.89,9.87,3.46-3.6-.8-5.97-4.37-9.87-3.46Z"/>
  <path class="cls-1" d="M308.88,158.31c5.59-30.78,11.11-61.15,16.64-91.58h21.27c-8.1,38.13-16.13,75.91-24.2,113.86h-26.85c-5.62-28.35-11.25-56.76-16.95-85.53-5.55,28.61-11.06,56.96-16.59,85.46h-25.96c-8.35-37.79-16.71-75.61-25.14-113.8h22.75c5.53,30.21,11.08,60.53,16.67,91.05,6.15-30.25,12.3-60.5,18.5-90.98h20.71c6.34,30.33,12.71,60.79,19.14,91.52Z"/>
  <path class="cls-1" d="M367.93,28.84h22.08v60.8h51.22V28.98h22.44v151.52h-22.06v-66.83h-51.57v66.92h-22.11V28.84Z"/>
  <path class="cls-3" d="M695.45,223.83h-21.4V73.32h17.55c.51,3.4,1.03,6.94,1.69,11.38,12.68-10.21,26.8-19.81,43.17-10.71,16.34,9.08,20.62,29.78,21.32,46.9,1.44,35.37-23.95,82.98-62.32,51.87v51.07ZM695.49,153.66c10.65,11.47,27.08,12.18,35.18-2.34,7.14-12.81,7.06-33.93,1.69-47.29-5.77-14.35-22.05-16.88-32.7-5.08-6.25,6.92-4.16,16.54-4.17,25.45,0,9.75,0,19.51,0,29.26Z"/>
  <path class="cls-3" d="M853.45,134.17h-58.46c1.37,26.55,24.61,39.26,48.24,22.18,2.39,5.08,4.75,10.11,7.31,15.58-18.11,13.23-43.59,17.2-60.86.22-17.61-17.31-20.26-48.31-11.74-70.39,7.92-20.53,26.45-37.42,49.93-29.67,26.21,8.65,25.58,39.69,25.58,62.08ZM835.39,116.64c-1.1-11.66-2.95-25.68-17.61-26.58-14.88-.91-21.77,14.04-23.19,26.58h40.8Z"/>
  <path class="cls-2" d="M1024.8,83.31c-3.41,6.48-6.49,12.31-9.72,18.45-11.97-7.16-24.31-11.87-37.6-4.72-11.4,6.13-17.76,19.82-18.51,32.37-.69,11.54,3.14,23.95,14.19,29.26,11.96,5.75,24.08-.25,34.97-5.55,1.58,6.6,3.1,12.89,4.6,19.17-38.78,25.2-80.69-4.08-73.99-48.55,6.29-41.72,50.25-65.15,86.06-40.43Z"/>
  <path class="cls-1" d="M518.44,180.64h-21.96V28.96h21.96v151.68Z"/>
  <path class="cls-3" d="M896.25,181.04h-21.33v-107.63h17.45c.52,5.96,1.06,12,1.69,19.17,8.22-13.46,19.49-27.8,37.21-20.07-1.19,7.15-2.38,14.29-3.64,21.82-43.68-7.78-31.37,60.59-31.37,86.7Z"/>
  <path class="cls-2" d="M947.21,84.56c-1.09-18.18,1.89-72.76,32.25-65.74,4.05,5.18-4.72,16.91-6.43,21.83-3.11,8.96-.82,15.88,2.85,24.31-11.02,4.33-20.7,10.51-28.67,19.61Z"/>
  <path class="cls-2" d="M980.03,120.65h10.62v-12.95h10.55c.28,4.15.57,8.33.9,13.1h11.19v12.3h-11.35v12.77h-11.09v-12.48h-10.82v-12.74Z"/>
  <path class="cls-2" d="M1050.98,120.66v12.51h-10.2v12.7h-11.03v-12.59h-11.62v-12.27c3.56-.17,7.27-.34,11.45-.54v-12.8h10.94v13h10.46Z"/>
  <path class="cls-2" d="M1006.96,28.69c.66,1.19,1.27,2.3,1.94,3.52-2.03,5.69-7.17,9.67-8.24,15.83-.96,5.49,3.33,10.19,2.72,15.03h-23.17c2.05-13.22,7.87-40.16,26.75-34.39Z"/>
  <text class="cls-5" transform="translate(9.11 165.06) scale(.98 1)"><tspan x="0" y="0">cy</tspan></text>
</svg>